# xmcd
#
# Track frame offsets:
#	150
#	21101
#	37942
#	48520
#	64463
#	76575
#	87383
#	90931
#	100230
#	111973
#	116806
#	134611
#	158737
#
# Disc length: 2175 seconds
#
# Revision: 1
# Processed by: cddbd v1.5.1PL2 Copyright (c) Steve Scherf et al.
# Submitted via: dBpowerAMP V4.0
#
DISCID=a2087d0d
DTITLE=Achbold - Erh Choloo Enh Taivan
DYEAR=2006
DGENRE=Blues
TTITLE0=Our Future
TTITLE1=Meaningful And Meaningless Words
TTITLE2=Cuz I Like You
TTITLE3=Cuz I'm With Ya
TTITLE4=Freedom, Peace, And Love
TTITLE5=Said That He Loves Her
TTITLE6=Okino
TTITLE7=Classmates
TTITLE8=I'll Wait For You
TTITLE9=Little Bro
TTITLE10=Dream
TTITLE11=Ma Friend
TTITLE12=Listen To The Rock'n Roll
EXTD=Joey Batuka
EXTT0=
EXTT1=
EXTT2=
EXTT3=
EXTT4=
EXTT5=
EXTT6=
EXTT7=
EXTT8=
EXTT9=
EXTT10=
EXTT11=
EXTT12=
PLAYORDER=
